<?xml version="1.0" encoding="iso-8859-1"?>
<!-- Generator: Adobe Illustrator 19.0.0, SVG Export Plug-In . SVG Version: 6.00 Build 0)  -->
<svg version="1.1" id="Capa_1" xmlns="http://www.w3.org/2000/svg" xmlns:xlink="http://www.w3.org/1999/xlink" x="0px" y="0px"
	 viewBox="0 0 512.001 512.001" style="enable-background:new 0 0 512.001 512.001;" xml:space="preserve">
<path style="fill:#FF9A00;" d="M360.993,105.596c-34.935,0-66.416,19.38-82.159,50.576l13.389,6.757l35.916,97.837l81.056-3.12
	l9.39,11.694c21.87-17.562,34.414-43.714,34.414-71.748C452.999,146.864,411.726,105.596,360.993,105.596z"/>
<path style="fill:#83B6FF;" d="M477.517,342.813c0,66.559-54.141,120.699-120.699,120.699H104.385
	C46.829,463.511,0,416.683,0,359.126c0-57.499,46.737-104.282,104.213-104.385c0.069-71.46,58.231-129.565,129.713-129.565
	c4.341,0,8.648,0.217,12.898,0.651c53.855,5.392,99.038,44.178,112.633,96.308C424.793,223.542,477.517,277.133,477.517,342.813z"/>
<path style="fill:#7984EB;" d="M477.517,342.813c0,66.559-54.141,120.699-120.699,120.699H246.824V125.828
	c53.855,5.392,99.038,44.178,112.633,96.308C424.793,223.542,477.517,277.133,477.517,342.813z"/>
<g>
	
		<rect x="332.665" y="52.039" transform="matrix(-0.0831 -0.9965 0.9965 -0.0831 312.3091 421.4202)" style="fill:#E67500;" width="34.718" height="29.992"/>
	
		<rect x="401.051" y="61.148" transform="matrix(-0.9103 -0.4139 0.4139 -0.9103 762.289 322.1803)" style="fill:#E67500;" width="29.993" height="34.719"/>
	
		<rect x="268.863" y="74.346" transform="matrix(-0.559 -0.8292 0.8292 -0.559 372.1364 376.6151)" style="fill:#E67500;" width="34.722" height="29.994"/>
	
		<rect x="453.109" y="103.4" transform="matrix(-0.5925 -0.8056 0.8056 -0.5925 648.1715 569.4061)" style="fill:#E67500;" width="29.994" height="34.721"/>
	
		<rect x="477.92" y="165.641" transform="matrix(-0.1239 -0.9923 0.9923 -0.1239 372.3968 694.7943)" style="fill:#E67500;" width="29.994" height="34.721"/>
	
		<rect x="466.819" y="234.43" transform="matrix(-0.9265 -0.3762 0.3762 -0.9265 838.9483 662.6823)" style="fill:#E67500;" width="34.718" height="29.993"/>
</g>
<g>
</g>
<g>
</g>
<g>
</g>
<g>
</g>
<g>
</g>
<g>
</g>
<g>
</g>
<g>
</g>
<g>
</g>
<g>
</g>
<g>
</g>
<g>
</g>
<g>
</g>
<g>
</g>
<g>
</g>
</svg>
