<?xml version="1.0" encoding="iso-8859-1"?>
<!-- Generator: Adobe Illustrator 19.0.0, SVG Export Plug-In . SVG Version: 6.00 Build 0)  -->
<svg version="1.1" id="Capa_1" xmlns="http://www.w3.org/2000/svg" xmlns:xlink="http://www.w3.org/1999/xlink" x="0px" y="0px"
	 viewBox="0 0 512 512" style="enable-background:new 0 0 512 512;" xml:space="preserve">
<g>
	<path style="fill:#9CFDFF;" d="M191.693,512l-28.888-8.106c2.825-10.069,5.739-20.741,9.17-33.586l28.987,7.743
		C197.498,491.019,194.553,501.806,191.693,512z M209.924,444.157l-29.015-7.638c2.943-11.181,5.832-22.138,8.81-33.241l0.204-0.745
		l28.934,7.938l-0.179,0.655C215.736,422.092,212.857,433.012,209.924,444.157z M228.536,377.131l-28.778-8.484
		c3.585-12.16,6.505-22.438,9.104-33.066l29.145,7.127C235.269,353.903,232.241,364.566,228.536,377.131z"/>
	<path style="fill:#9CFDFF;" d="M110.46,512l-28.888-8.106c2.825-10.069,5.739-20.741,9.169-33.586l28.987,7.743
		C116.266,491.019,113.32,501.806,110.46,512z M128.69,444.157l-29.015-7.638c2.943-11.181,5.833-22.138,8.811-33.241l0.202-0.737
		l28.939,7.922l-0.184,0.671C134.504,422.092,131.624,433.012,128.69,444.157z M147.303,377.131l-28.778-8.484
		c3.584-12.159,6.505-22.437,9.105-33.067l29.145,7.128C154.036,353.904,151.008,364.568,147.303,377.131z"/>
</g>
<path style="fill:#83B6FF;" d="M465.014,190.522c0,58.267-47.396,105.662-105.662,105.662H138.366
	c-50.386,0-91.381-40.995-91.381-91.381c0-50.336,40.915-91.291,91.231-91.381C138.276,50.866,189.192,0,251.77,0
	c3.8,0,7.571,0.19,11.291,0.57c47.146,4.721,86.7,38.675,98.602,84.31C418.859,86.11,465.014,133.026,465.014,190.522z"/>
<g>
	<path style="fill:#55FBFF;" d="M272.866,512l-28.888-8.106c2.825-10.069,5.739-20.741,9.169-33.586l28.987,7.743
		C278.671,491.019,275.725,501.806,272.866,512z M291.096,444.157l-29.015-7.638c2.943-11.181,5.833-22.138,8.811-33.241
		l0.204-0.745l28.934,7.938l-0.179,0.655C296.909,422.092,294.029,433.012,291.096,444.157z M309.708,377.131l-28.778-8.484
		c3.585-12.159,6.505-22.437,9.105-33.067l29.145,7.128C316.441,353.904,313.413,364.568,309.708,377.131z"/>
	<path style="fill:#55FBFF;" d="M354.024,511.501l-29.123-7.213c0.48-1.939,0.954-3.879,1.43-5.823
		c1.267-5.184,2.578-10.544,4.005-15.898c1.147-4.234,2.286-8.397,3.43-12.546l28.924,7.975c-1.132,4.107-2.259,8.228-3.379,12.362
		c-1.331,4.993-2.604,10.199-3.835,15.234C354.993,507.563,354.512,509.534,354.024,511.501z M372.109,444.405l-28.863-8.191
		c1.726-6.082,3.455-12.148,5.181-18.205c1.47-5.161,2.939-10.313,4.402-15.463l28.861,8.199c-1.465,5.158-2.936,10.318-4.41,15.486
		C375.557,432.278,373.832,438.333,372.109,444.405z M391.182,376.941l-28.921-7.986c3.375-12.223,6.33-23.211,9.03-33.588
		l29.036,7.557C397.589,353.445,394.597,364.573,391.182,376.941z"/>
</g>
<path style="fill:#7984EB;" d="M465.014,190.522c0,58.267-47.396,105.662-105.662,105.662h-96.291V0.57
	c47.146,4.721,86.7,38.675,98.602,84.31C418.859,86.11,465.014,133.026,465.014,190.522z"/>
<g>
</g>
<g>
</g>
<g>
</g>
<g>
</g>
<g>
</g>
<g>
</g>
<g>
</g>
<g>
</g>
<g>
</g>
<g>
</g>
<g>
</g>
<g>
</g>
<g>
</g>
<g>
</g>
<g>
</g>
</svg>
