<svg id="Capa_1" enable-background="new 0 0 512.459 512.459" height="512" viewBox="0 0 512.459 512.459" width="512" xmlns="http://www.w3.org/2000/svg"><g><g><path d="m256.23 111.849-28.617-46.236 28.617-65.383 75.209 74.833h106.04v106.04l74.98 74.98-74.98 74.98v106.04h-106.04l-75.209 75.127-24.788-61.851 24.788-49.915 125.601-165.761-.001-.004z" fill="#ff7037"/><path d="m256.23 111.849v-111.619l-75.21 74.833h-106.04v106.04l-74.98 74.98 74.98 74.98v106.04h106.04l75.21 75.127v-111.766l-125.601-165.761v-.004z" fill="#ff9e22"/></g><g><path d="m256.23 111.996-54.272 140.204 54.272 148.264c79.665 0 144.234-64.569 144.234-144.234s-64.569-144.234-144.234-144.234z" fill="#ffb555"/><path d="m256.23 111.996v288.468c-79.665 0-144.234-64.569-144.234-144.234s64.569-144.234 144.234-144.234z" fill="#fd5"/><g><path d="m415.46 256.23c0 87.8-71.43 159.23-159.23 159.23l-16.702-16.57 16.702-13.43c71.26 0 129.23-57.97 129.23-129.23s-57.97-129.23-129.23-129.23l-15.851-14.238 15.851-15.762c87.8 0 159.23 71.43 159.23 159.23z" fill="#b30042"/><path d="m127 256.23c0 71.26 57.97 129.23 129.23 129.23v30c-87.8 0-159.23-71.43-159.23-159.23s71.43-159.23 159.23-159.23v30c-71.26 0-129.23 57.97-129.23 129.23z" fill="#e40058"/></g></g></g></svg>